<?xml version="1.0" encoding="utf-8"?>
<!-- Generator: Adobe Illustrator 27.5.0, SVG Export Plug-In . SVG Version: 6.00 Build 0)  -->
<svg version="1.1" xmlns="http://www.w3.org/2000/svg" xmlns:xlink="http://www.w3.org/1999/xlink" x="0px" y="0px"
	viewBox="150 375 200 65" style="enable-background:new 0 0 500 500;" xml:space="preserve">
	<g id="XMLID_685_">
		<path id="XMLID_503_" style="fill:#5C9934;" d="M340.75,389.513v9.75c0,1.312,1.063,2.375,2.375,2.375h2.5
			c1.312,0,2.375,1.063,2.375,2.375v1.88c0,1.312-1.063,2.375-2.375,2.375l0,0c-1.312,0-2.375,1.063-2.375,2.375v3.12
			c0,1.312,1.063,2.375,2.375,2.375l0,0c1.312,0,2.375,1.063,2.375,2.375v2.25c0,1.312-1.063,2.375-2.375,2.375h-191.25
			c-1.312,0-2.375-1.063-2.375-2.375v-2.25c0-1.312,1.063-2.375,2.375-2.375l0,0c1.312,0,2.375-1.063,2.375-2.375v-3.13
			c0-1.312-1.063-2.375-2.375-2.375l0,0c-1.312,0-2.375-1.063-2.375-2.375v-1.87c0-1.312,1.063-2.375,2.375-2.375h2.5
			c1.312,0,2.375-1.063,2.375-2.375v-9.75c0-1.312-1.063-2.375-2.375-2.375h-2.5c-1.312,0-2.375-1.063-2.375-2.375v-3.75
			c0-1.312,1.063-2.375,2.375-2.375h191.25c1.312,0,2.375,1.063,2.375,2.375v3.75c0,1.312-1.063,2.375-2.375,2.375h-2.5
			C341.813,387.138,340.75,388.201,340.75,389.513z" />
		<rect id="XMLID_314_" x="160" y="423.138" style="fill:#5C9934;" width="180" height="14.5" />
		<g id="XMLID_682_">
			<g id="XMLID_294_">
				<rect id="XMLID_501_" x="166.452" y="430.388" style="fill:#FFBB33;" width="4.25" height="7.25" />
				<rect id="XMLID_315_" x="173.19" y="430.388" style="fill:#FFBB33;" width="4.25" height="7.25" />
				<rect id="XMLID_497_" x="179.927" y="430.388" style="fill:#FFBB33;" width="4.25" height="7.25" />
				<rect id="XMLID_491_" x="186.665" y="430.388" style="fill:#FFBB33;" width="4.25" height="7.25" />
				<rect id="XMLID_504_" x="193.402" y="430.388" style="fill:#FFBB33;" width="4.25" height="7.25" />
				<rect id="XMLID_502_" x="200.14" y="430.388" style="fill:#FFBB33;" width="4.25" height="7.25" />
				<rect id="XMLID_500_" x="206.877" y="430.388" style="fill:#FFBB33;" width="4.25" height="7.25" />
				<rect id="XMLID_499_" x="213.615" y="430.388" style="fill:#FFBB33;" width="4.25" height="7.25" />
				<rect id="XMLID_507_" x="220.352" y="430.388" style="fill:#FFBB33;" width="4.25" height="7.25" />
				<rect id="XMLID_506_" x="227.09" y="430.388" style="fill:#FFBB33;" width="4.25" height="7.25" />
				<rect id="XMLID_505_" x="233.827" y="430.388" style="fill:#FFBB33;" width="4.25" height="7.25" />
			</g>
			<g id="XMLID_509_">
				<rect id="XMLID_533_" x="261.923" y="430.388" style="fill:#FFBB33;" width="4.25" height="7.25" />
				<rect id="XMLID_529_" x="268.66" y="430.388" style="fill:#FFBB33;" width="4.25" height="7.25" />
				<rect id="XMLID_526_" x="275.398" y="430.388" style="fill:#FFBB33;" width="4.25" height="7.25" />
				<rect id="XMLID_525_" x="282.135" y="430.388" style="fill:#FFBB33;" width="4.25" height="7.25" />
				<rect id="XMLID_540_" x="248.448" y="430.388" style="fill:#FFBB33;" width="4.25" height="7.25" />
				<rect id="XMLID_539_" x="255.185" y="430.388" style="fill:#FFBB33;" width="4.25" height="7.25" />
				<rect id="XMLID_523_" x="288.873" y="430.388" style="fill:#FFBB33;" width="4.25" height="7.25" />
				<rect id="XMLID_522_" x="295.61" y="430.388" style="fill:#FFBB33;" width="4.25" height="7.25" />
				<rect id="XMLID_515_" x="302.348" y="430.388" style="fill:#FFBB33;" width="4.25" height="7.25" />
				<rect id="XMLID_514_" x="309.085" y="430.388" style="fill:#FFBB33;" width="4.25" height="7.25" />
				<rect id="XMLID_513_" x="315.823" y="430.388" style="fill:#FFBB33;" width="4.25" height="7.25" />
				<rect id="XMLID_512_" x="322.56" y="430.388" style="fill:#FFBB33;" width="4.25" height="7.25" />
				<rect id="XMLID_510_" x="329.298" y="430.388" style="fill:#FFBB33;" width="4.25" height="7.25" />
			</g>
		</g>
		<g id="XMLID_619_">
			<g id="XMLID_567_">
				<g id="XMLID_566_">
					<g id="XMLID_558_">
						<g id="XMLID_552_">
							<path id="XMLID_317_" style="fill:#3C3A3D;"
								d="M186.84,387.205h-5.125c-0.587,0-1.063,0.476-1.063,1.063
								c0,0.587,0.476,1.063,1.063,1.063h5.125c0.587,0,1.063-0.476,1.063-1.063C187.902,387.68,187.427,387.205,186.84,387.205z" />
							<path id="XMLID_553_" style="fill:#3C3A3D;" d="M186.84,391.865h-5.125c-0.587,0-1.063,0.476-1.063,1.063
								s0.476,1.063,1.063,1.063h5.125c0.587,0,1.063-0.476,1.063-1.063S187.427,391.865,186.84,391.865z" />
							<path id="XMLID_554_" style="fill:#3C3A3D;" d="M186.84,396.525h-5.125c-0.587,0-1.063,0.476-1.063,1.063
								s0.476,1.063,1.063,1.063h5.125c0.587,0,1.063-0.476,1.063-1.063S187.427,396.525,186.84,396.525z" />
							<path id="XMLID_555_" style="fill:#3C3A3D;"
								d="M186.84,401.185h-5.125c-0.587,0-1.063,0.476-1.063,1.063
								c0,0.587,0.476,1.063,1.063,1.063h5.125c0.587,0,1.063-0.476,1.063-1.063C187.902,401.661,187.427,401.185,186.84,401.185z" />
							<path id="XMLID_556_" style="fill:#3C3A3D;" d="M186.84,405.845h-5.125c-0.587,0-1.063,0.476-1.063,1.063
								s0.476,1.063,1.063,1.063h5.125c0.587,0,1.063-0.476,1.063-1.063S187.427,405.845,186.84,405.845z" />
							<path id="XMLID_557_" style="fill:#3C3A3D;"
								d="M186.84,410.506h-5.125c-0.587,0-1.063,0.476-1.063,1.063
								c0,0.587,0.476,1.063,1.063,1.063h5.125c0.587,0,1.063-0.476,1.063-1.063C187.902,410.981,187.427,410.506,186.84,410.506z" />
						</g>
						<g id="XMLID_559_">
							<path id="XMLID_565_" style="fill:#3C3A3D;"
								d="M173.365,387.205h-5.125c-0.587,0-1.063,0.476-1.063,1.063
								c0,0.587,0.475,1.063,1.063,1.063h5.125c0.587,0,1.063-0.476,1.063-1.063C174.427,387.68,173.952,387.205,173.365,387.205z" />
							<path id="XMLID_564_" style="fill:#3C3A3D;" d="M173.365,391.865h-5.125c-0.587,0-1.063,0.476-1.063,1.063
								s0.475,1.063,1.063,1.063h5.125c0.587,0,1.063-0.476,1.063-1.063S173.952,391.865,173.365,391.865z" />
							<path id="XMLID_563_" style="fill:#3C3A3D;" d="M173.365,396.525h-5.125c-0.587,0-1.063,0.476-1.063,1.063
								s0.475,1.063,1.063,1.063h5.125c0.587,0,1.063-0.476,1.063-1.063S173.952,396.525,173.365,396.525z" />
							<path id="XMLID_562_" style="fill:#3C3A3D;"
								d="M173.365,401.185h-5.125c-0.587,0-1.063,0.476-1.063,1.063
								c0,0.587,0.475,1.063,1.063,1.063h5.125c0.587,0,1.063-0.476,1.063-1.063C174.427,401.661,173.952,401.185,173.365,401.185z" />
							<path id="XMLID_561_" style="fill:#3C3A3D;" d="M173.365,405.845h-5.125c-0.587,0-1.063,0.476-1.063,1.063
								s0.475,1.063,1.063,1.063h5.125c0.587,0,1.063-0.476,1.063-1.063S173.952,405.845,173.365,405.845z" />
							<path id="XMLID_560_" style="fill:#3C3A3D;"
								d="M173.365,410.506h-5.125c-0.587,0-1.063,0.476-1.063,1.063
								c0,0.587,0.475,1.063,1.063,1.063h5.125c0.587,0,1.063-0.476,1.063-1.063C174.427,410.981,173.952,410.506,173.365,410.506z" />
						</g>
					</g>
					<rect id="XMLID_494_" x="169.54" y="384.14" style="fill:#4E4C4F;" width="16" height="31.556" />
				</g>
				<g id="XMLID_568_">
					<g id="XMLID_573_">
						<g id="XMLID_595_">
							<path id="XMLID_601_" style="fill:#3C3A3D;"
								d="M212.412,387.205h-5.125c-0.587,0-1.063,0.476-1.063,1.063
								c0,0.587,0.476,1.063,1.063,1.063h5.125c0.587,0,1.063-0.476,1.063-1.063C213.474,387.68,212.999,387.205,212.412,387.205z" />
							<path id="XMLID_600_" style="fill:#3C3A3D;" d="M212.412,391.865h-5.125c-0.587,0-1.063,0.476-1.063,1.063
								s0.476,1.063,1.063,1.063h5.125c0.587,0,1.063-0.476,1.063-1.063S212.999,391.865,212.412,391.865z" />
							<path id="XMLID_599_" style="fill:#3C3A3D;" d="M212.412,396.525h-5.125c-0.587,0-1.063,0.476-1.063,1.063
								s0.476,1.063,1.063,1.063h5.125c0.587,0,1.063-0.476,1.063-1.063S212.999,396.525,212.412,396.525z" />
							<path id="XMLID_598_" style="fill:#3C3A3D;"
								d="M212.412,401.185h-5.125c-0.587,0-1.063,0.476-1.063,1.063
								c0,0.587,0.476,1.063,1.063,1.063h5.125c0.587,0,1.063-0.476,1.063-1.063C213.474,401.661,212.999,401.185,212.412,401.185z" />
							<path id="XMLID_597_" style="fill:#3C3A3D;" d="M212.412,405.845h-5.125c-0.587,0-1.063,0.476-1.063,1.063
								s0.476,1.063,1.063,1.063h5.125c0.587,0,1.063-0.476,1.063-1.063S212.999,405.845,212.412,405.845z" />
							<path id="XMLID_596_" style="fill:#3C3A3D;"
								d="M212.412,410.506h-5.125c-0.587,0-1.063,0.476-1.063,1.063
								c0,0.587,0.476,1.063,1.063,1.063h5.125c0.587,0,1.063-0.476,1.063-1.063C213.474,410.981,212.999,410.506,212.412,410.506z" />
						</g>
						<g id="XMLID_577_">
							<path id="XMLID_594_" style="fill:#3C3A3D;"
								d="M198.937,387.205h-5.125c-0.587,0-1.063,0.476-1.063,1.063
								c0,0.587,0.476,1.063,1.063,1.063h5.125c0.587,0,1.063-0.476,1.063-1.063C199.999,387.68,199.524,387.205,198.937,387.205z" />
							<path id="XMLID_593_" style="fill:#3C3A3D;" d="M198.937,391.865h-5.125c-0.587,0-1.063,0.476-1.063,1.063
								s0.476,1.063,1.063,1.063h5.125c0.587,0,1.063-0.476,1.063-1.063S199.524,391.865,198.937,391.865z" />
							<path id="XMLID_592_" style="fill:#3C3A3D;" d="M198.937,396.525h-5.125c-0.587,0-1.063,0.476-1.063,1.063
								s0.476,1.063,1.063,1.063h5.125c0.587,0,1.063-0.476,1.063-1.063S199.524,396.525,198.937,396.525z" />
							<path id="XMLID_591_" style="fill:#3C3A3D;"
								d="M198.937,401.185h-5.125c-0.587,0-1.063,0.476-1.063,1.063
								c0,0.587,0.476,1.063,1.063,1.063h5.125c0.587,0,1.063-0.476,1.063-1.063C199.999,401.661,199.524,401.185,198.937,401.185z" />
							<path id="XMLID_590_" style="fill:#3C3A3D;" d="M198.937,405.845h-5.125c-0.587,0-1.063,0.476-1.063,1.063
								s0.476,1.063,1.063,1.063h5.125c0.587,0,1.063-0.476,1.063-1.063S199.524,405.845,198.937,405.845z" />
							<path id="XMLID_589_" style="fill:#3C3A3D;"
								d="M198.937,410.506h-5.125c-0.587,0-1.063,0.476-1.063,1.063
								c0,0.587,0.476,1.063,1.063,1.063h5.125c0.587,0,1.063-0.476,1.063-1.063C199.999,410.981,199.524,410.506,198.937,410.506z" />
						</g>
					</g>
					<rect id="XMLID_569_" x="195.112" y="384.14" style="fill:#4E4C4F;" width="16" height="31.556" />
				</g>
				<g id="XMLID_602_">
					<g id="XMLID_604_">
						<g id="XMLID_612_">
							<path id="XMLID_618_" style="fill:#3C3A3D;"
								d="M237.984,387.205h-5.125c-0.587,0-1.063,0.476-1.063,1.063
								c0,0.587,0.476,1.063,1.063,1.063h5.125c0.587,0,1.063-0.476,1.063-1.063C239.046,387.68,238.57,387.205,237.984,387.205z" />
							<path id="XMLID_617_" style="fill:#3C3A3D;" d="M237.984,391.865h-5.125c-0.587,0-1.063,0.476-1.063,1.063
								s0.476,1.063,1.063,1.063h5.125c0.587,0,1.063-0.476,1.063-1.063S238.57,391.865,237.984,391.865z" />
							<path id="XMLID_616_" style="fill:#3C3A3D;" d="M237.984,396.525h-5.125c-0.587,0-1.063,0.476-1.063,1.063
								s0.476,1.063,1.063,1.063h5.125c0.587,0,1.063-0.476,1.063-1.063S238.57,396.525,237.984,396.525z" />
							<path id="XMLID_615_" style="fill:#3C3A3D;"
								d="M237.984,401.185h-5.125c-0.587,0-1.063,0.476-1.063,1.063
								c0,0.587,0.476,1.063,1.063,1.063h5.125c0.587,0,1.063-0.476,1.063-1.063C239.046,401.661,238.57,401.185,237.984,401.185z" />
							<path id="XMLID_614_" style="fill:#3C3A3D;" d="M237.984,405.845h-5.125c-0.587,0-1.063,0.476-1.063,1.063
								s0.476,1.063,1.063,1.063h5.125c0.587,0,1.063-0.476,1.063-1.063S238.57,405.845,237.984,405.845z" />
							<path id="XMLID_613_" style="fill:#3C3A3D;"
								d="M237.984,410.506h-5.125c-0.587,0-1.063,0.476-1.063,1.063
								c0,0.587,0.476,1.063,1.063,1.063h5.125c0.587,0,1.063-0.476,1.063-1.063C239.046,410.981,238.57,410.506,237.984,410.506z" />
						</g>
						<g id="XMLID_605_">
							<path id="XMLID_611_" style="fill:#3C3A3D;"
								d="M224.509,387.205h-5.125c-0.587,0-1.063,0.476-1.063,1.063
								c0,0.587,0.476,1.063,1.063,1.063h5.125c0.587,0,1.063-0.476,1.063-1.063C225.571,387.68,225.095,387.205,224.509,387.205z" />
							<path id="XMLID_610_" style="fill:#3C3A3D;" d="M224.509,391.865h-5.125c-0.587,0-1.063,0.476-1.063,1.063
								s0.476,1.063,1.063,1.063h5.125c0.587,0,1.063-0.476,1.063-1.063S225.095,391.865,224.509,391.865z" />
							<path id="XMLID_609_" style="fill:#3C3A3D;" d="M224.509,396.525h-5.125c-0.587,0-1.063,0.476-1.063,1.063
								s0.476,1.063,1.063,1.063h5.125c0.587,0,1.063-0.476,1.063-1.063S225.095,396.525,224.509,396.525z" />
							<path id="XMLID_608_" style="fill:#3C3A3D;"
								d="M224.509,401.185h-5.125c-0.587,0-1.063,0.476-1.063,1.063
								c0,0.587,0.476,1.063,1.063,1.063h5.125c0.587,0,1.063-0.476,1.063-1.063C225.571,401.661,225.095,401.185,224.509,401.185z" />
							<path id="XMLID_607_" style="fill:#3C3A3D;" d="M224.509,405.845h-5.125c-0.587,0-1.063,0.476-1.063,1.063
								s0.476,1.063,1.063,1.063h5.125c0.587,0,1.063-0.476,1.063-1.063S225.095,405.845,224.509,405.845z" />
							<path id="XMLID_606_" style="fill:#3C3A3D;"
								d="M224.509,410.506h-5.125c-0.587,0-1.063,0.476-1.063,1.063
								c0,0.587,0.476,1.063,1.063,1.063h5.125c0.587,0,1.063-0.476,1.063-1.063C225.571,410.981,225.095,410.506,224.509,410.506z" />
						</g>
					</g>
					<rect id="XMLID_603_" x="220.684" y="384.14" style="fill:#4E4C4F;" width="16" height="31.556" />
				</g>
			</g>
			<g id="XMLID_620_">
				<g id="XMLID_664_">
					<g id="XMLID_666_">
						<g id="XMLID_674_">
							<path id="XMLID_681_" style="fill:#3C3A3D;"
								d="M280.616,387.205h-5.125c-0.587,0-1.063,0.476-1.063,1.063
								c0,0.587,0.476,1.063,1.063,1.063h5.125c0.587,0,1.063-0.476,1.063-1.063C281.679,387.68,281.203,387.205,280.616,387.205z" />
							<path id="XMLID_680_" style="fill:#3C3A3D;" d="M280.616,391.865h-5.125c-0.587,0-1.063,0.476-1.063,1.063
								s0.476,1.063,1.063,1.063h5.125c0.587,0,1.063-0.476,1.063-1.063S281.203,391.865,280.616,391.865z" />
							<path id="XMLID_679_" style="fill:#3C3A3D;" d="M280.616,396.525h-5.125c-0.587,0-1.063,0.476-1.063,1.063
								s0.476,1.063,1.063,1.063h5.125c0.587,0,1.063-0.476,1.063-1.063S281.203,396.525,280.616,396.525z" />
							<path id="XMLID_678_" style="fill:#3C3A3D;"
								d="M280.616,401.185h-5.125c-0.587,0-1.063,0.476-1.063,1.063
								c0,0.587,0.476,1.063,1.063,1.063h5.125c0.587,0,1.063-0.476,1.063-1.063C281.679,401.661,281.203,401.185,280.616,401.185z" />
							<path id="XMLID_676_" style="fill:#3C3A3D;" d="M280.616,405.845h-5.125c-0.587,0-1.063,0.476-1.063,1.063
								s0.476,1.063,1.063,1.063h5.125c0.587,0,1.063-0.476,1.063-1.063S281.203,405.845,280.616,405.845z" />
							<path id="XMLID_675_" style="fill:#3C3A3D;"
								d="M280.616,410.506h-5.125c-0.587,0-1.063,0.476-1.063,1.063
								c0,0.587,0.476,1.063,1.063,1.063h5.125c0.587,0,1.063-0.476,1.063-1.063C281.679,410.981,281.203,410.506,280.616,410.506z" />
						</g>
						<g id="XMLID_667_">
							<path id="XMLID_673_" style="fill:#3C3A3D;"
								d="M267.141,387.205h-5.125c-0.587,0-1.063,0.476-1.063,1.063
								c0,0.587,0.476,1.063,1.063,1.063h5.125c0.587,0,1.063-0.476,1.063-1.063C268.204,387.68,267.728,387.205,267.141,387.205z" />
							<path id="XMLID_672_" style="fill:#3C3A3D;" d="M267.141,391.865h-5.125c-0.587,0-1.063,0.476-1.063,1.063
								s0.476,1.063,1.063,1.063h5.125c0.587,0,1.063-0.476,1.063-1.063S267.728,391.865,267.141,391.865z" />
							<path id="XMLID_671_" style="fill:#3C3A3D;" d="M267.141,396.525h-5.125c-0.587,0-1.063,0.476-1.063,1.063
								s0.476,1.063,1.063,1.063h5.125c0.587,0,1.063-0.476,1.063-1.063S267.728,396.525,267.141,396.525z" />
							<path id="XMLID_670_" style="fill:#3C3A3D;"
								d="M267.141,401.185h-5.125c-0.587,0-1.063,0.476-1.063,1.063
								c0,0.587,0.476,1.063,1.063,1.063h5.125c0.587,0,1.063-0.476,1.063-1.063C268.204,401.661,267.728,401.185,267.141,401.185z" />
							<path id="XMLID_669_" style="fill:#3C3A3D;" d="M267.141,405.845h-5.125c-0.587,0-1.063,0.476-1.063,1.063
								s0.476,1.063,1.063,1.063h5.125c0.587,0,1.063-0.476,1.063-1.063S267.728,405.845,267.141,405.845z" />
							<path id="XMLID_668_" style="fill:#3C3A3D;"
								d="M267.141,410.506h-5.125c-0.587,0-1.063,0.476-1.063,1.063
								c0,0.587,0.476,1.063,1.063,1.063h5.125c0.587,0,1.063-0.476,1.063-1.063C268.204,410.981,267.728,410.506,267.141,410.506z" />
						</g>
					</g>
					<rect id="XMLID_665_" x="263.316" y="384.14" style="fill:#4E4C4F;" width="16" height="31.556" />
				</g>
				<g id="XMLID_638_">
					<g id="XMLID_640_">
						<g id="XMLID_653_">
							<path id="XMLID_663_" style="fill:#3C3A3D;"
								d="M306.188,387.205h-5.125c-0.587,0-1.063,0.476-1.063,1.063
								c0,0.587,0.476,1.063,1.063,1.063h5.125c0.587,0,1.063-0.476,1.063-1.063C307.251,387.68,306.775,387.205,306.188,387.205z" />
							<path id="XMLID_662_" style="fill:#3C3A3D;" d="M306.188,391.865h-5.125c-0.587,0-1.063,0.476-1.063,1.063
								s0.476,1.063,1.063,1.063h5.125c0.587,0,1.063-0.476,1.063-1.063S306.775,391.865,306.188,391.865z" />
							<path id="XMLID_661_" style="fill:#3C3A3D;" d="M306.188,396.525h-5.125c-0.587,0-1.063,0.476-1.063,1.063
								s0.476,1.063,1.063,1.063h5.125c0.587,0,1.063-0.476,1.063-1.063S306.775,396.525,306.188,396.525z" />
							<path id="XMLID_660_" style="fill:#3C3A3D;"
								d="M306.188,401.185h-5.125c-0.587,0-1.063,0.476-1.063,1.063
								c0,0.587,0.476,1.063,1.063,1.063h5.125c0.587,0,1.063-0.476,1.063-1.063C307.251,401.661,306.775,401.185,306.188,401.185z" />
							<path id="XMLID_659_" style="fill:#3C3A3D;" d="M306.188,405.845h-5.125c-0.587,0-1.063,0.476-1.063,1.063
								s0.476,1.063,1.063,1.063h5.125c0.587,0,1.063-0.476,1.063-1.063S306.775,405.845,306.188,405.845z" />
							<path id="XMLID_656_" style="fill:#3C3A3D;"
								d="M306.188,410.506h-5.125c-0.587,0-1.063,0.476-1.063,1.063
								c0,0.587,0.476,1.063,1.063,1.063h5.125c0.587,0,1.063-0.476,1.063-1.063C307.251,410.981,306.775,410.506,306.188,410.506z" />
						</g>
						<g id="XMLID_641_">
							<path id="XMLID_652_" style="fill:#3C3A3D;"
								d="M292.713,387.205h-5.125c-0.587,0-1.063,0.476-1.063,1.063
								c0,0.587,0.476,1.063,1.063,1.063h5.125c0.587,0,1.063-0.476,1.063-1.063C293.776,387.68,293.3,387.205,292.713,387.205z" />
							<path id="XMLID_651_" style="fill:#3C3A3D;" d="M292.713,391.865h-5.125c-0.587,0-1.063,0.476-1.063,1.063
								s0.476,1.063,1.063,1.063h5.125c0.587,0,1.063-0.476,1.063-1.063S293.3,391.865,292.713,391.865z" />
							<path id="XMLID_650_" style="fill:#3C3A3D;" d="M292.713,396.525h-5.125c-0.587,0-1.063,0.476-1.063,1.063
								s0.476,1.063,1.063,1.063h5.125c0.587,0,1.063-0.476,1.063-1.063S293.3,396.525,292.713,396.525z" />
							<path id="XMLID_649_" style="fill:#3C3A3D;"
								d="M292.713,401.185h-5.125c-0.587,0-1.063,0.476-1.063,1.063
								c0,0.587,0.476,1.063,1.063,1.063h5.125c0.587,0,1.063-0.476,1.063-1.063C293.776,401.661,293.3,401.185,292.713,401.185z" />
							<path id="XMLID_648_" style="fill:#3C3A3D;" d="M292.713,405.845h-5.125c-0.587,0-1.063,0.476-1.063,1.063
								s0.476,1.063,1.063,1.063h5.125c0.587,0,1.063-0.476,1.063-1.063S293.3,405.845,292.713,405.845z" />
							<path id="XMLID_646_" style="fill:#3C3A3D;"
								d="M292.713,410.506h-5.125c-0.587,0-1.063,0.476-1.063,1.063
								c0,0.587,0.476,1.063,1.063,1.063h5.125c0.587,0,1.063-0.476,1.063-1.063C293.776,410.981,293.3,410.506,292.713,410.506z" />
						</g>
					</g>
					<rect id="XMLID_639_" x="288.888" y="384.14" style="fill:#4E4C4F;" width="16" height="31.556" />
				</g>
				<g id="XMLID_621_">
					<g id="XMLID_623_">
						<g id="XMLID_631_">
							<path id="XMLID_637_" style="fill:#3C3A3D;"
								d="M331.76,387.205h-5.125c-0.587,0-1.063,0.476-1.063,1.063
								c0,0.587,0.476,1.063,1.063,1.063h5.125c0.587,0,1.063-0.476,1.063-1.063C332.823,387.68,332.347,387.205,331.76,387.205z" />
							<path id="XMLID_636_" style="fill:#3C3A3D;" d="M331.76,391.865h-5.125c-0.587,0-1.063,0.476-1.063,1.063
								s0.476,1.063,1.063,1.063h5.125c0.587,0,1.063-0.476,1.063-1.063S332.347,391.865,331.76,391.865z" />
							<path id="XMLID_635_" style="fill:#3C3A3D;" d="M331.76,396.525h-5.125c-0.587,0-1.063,0.476-1.063,1.063
								s0.476,1.063,1.063,1.063h5.125c0.587,0,1.063-0.476,1.063-1.063S332.347,396.525,331.76,396.525z" />
							<path id="XMLID_634_" style="fill:#3C3A3D;"
								d="M331.76,401.185h-5.125c-0.587,0-1.063,0.476-1.063,1.063
								c0,0.587,0.476,1.063,1.063,1.063h5.125c0.587,0,1.063-0.476,1.063-1.063C332.823,401.661,332.347,401.185,331.76,401.185z" />
							<path id="XMLID_633_" style="fill:#3C3A3D;" d="M331.76,405.845h-5.125c-0.587,0-1.063,0.476-1.063,1.063
								s0.476,1.063,1.063,1.063h5.125c0.587,0,1.063-0.476,1.063-1.063S332.347,405.845,331.76,405.845z" />
							<path id="XMLID_632_" style="fill:#3C3A3D;"
								d="M331.76,410.506h-5.125c-0.587,0-1.063,0.476-1.063,1.063
								c0,0.587,0.476,1.063,1.063,1.063h5.125c0.587,0,1.063-0.476,1.063-1.063C332.823,410.981,332.347,410.506,331.76,410.506z" />
						</g>
						<g id="XMLID_624_">
							<path id="XMLID_630_" style="fill:#3C3A3D;"
								d="M318.285,387.205h-5.125c-0.587,0-1.063,0.476-1.063,1.063
								c0,0.587,0.476,1.063,1.063,1.063h5.125c0.587,0,1.063-0.476,1.063-1.063C319.348,387.68,318.872,387.205,318.285,387.205z" />
							<path id="XMLID_629_" style="fill:#3C3A3D;" d="M318.285,391.865h-5.125c-0.587,0-1.063,0.476-1.063,1.063
								s0.476,1.063,1.063,1.063h5.125c0.587,0,1.063-0.476,1.063-1.063S318.872,391.865,318.285,391.865z" />
							<path id="XMLID_628_" style="fill:#3C3A3D;" d="M318.285,396.525h-5.125c-0.587,0-1.063,0.476-1.063,1.063
								s0.476,1.063,1.063,1.063h5.125c0.587,0,1.063-0.476,1.063-1.063S318.872,396.525,318.285,396.525z" />
							<path id="XMLID_627_" style="fill:#3C3A3D;"
								d="M318.285,401.185h-5.125c-0.587,0-1.063,0.476-1.063,1.063
								c0,0.587,0.476,1.063,1.063,1.063h5.125c0.587,0,1.063-0.476,1.063-1.063C319.348,401.661,318.872,401.185,318.285,401.185z" />
							<path id="XMLID_626_" style="fill:#3C3A3D;" d="M318.285,405.845h-5.125c-0.587,0-1.063,0.476-1.063,1.063
								s0.476,1.063,1.063,1.063h5.125c0.587,0,1.063-0.476,1.063-1.063S318.872,405.845,318.285,405.845z" />
							<path id="XMLID_625_" style="fill:#3C3A3D;"
								d="M318.285,410.506h-5.125c-0.587,0-1.063,0.476-1.063,1.063
								c0,0.587,0.476,1.063,1.063,1.063h5.125c0.587,0,1.063-0.476,1.063-1.063C319.348,410.981,318.872,410.506,318.285,410.506z" />
						</g>
					</g>
					<rect id="XMLID_622_" x="314.46" y="384.14" style="fill:#4E4C4F;" width="16" height="31.556" />
				</g>
			</g>
		</g>
		<path id="XMLID_683_" style="fill:#74B749;"
			d="M162.541,422.98c0.126,1.252,1.273,2.158,2.531,2.158h56.116
			c1.278,0,2.457-0.918,2.568-2.191c0.124-1.426-0.997-2.622-2.397-2.622h-56.424C163.524,420.325,162.397,421.539,162.541,422.98z" />
		<path id="XMLID_686_" style="fill:#74B749;"
			d="M233.973,422.98c0.125,1.252,1.272,2.158,2.531,2.158h17.116
			c1.278,0,2.457-0.918,2.568-2.191c0.124-1.426-0.997-2.622-2.397-2.622h-17.424C234.956,420.325,233.829,421.539,233.973,422.98z" />
	</g>
</svg>